<svg width="25" height="25" viewBox="0 0 25 25" fill="none" xmlns="http://www.w3.org/2000/svg">
<path fill-rule="evenodd" clip-rule="evenodd" d="M21.8752 4.16699C22.4505 4.16699 22.9168 4.63336 22.9168 5.20866V19.792C22.9168 20.3673 22.4505 20.8337 21.8752 20.8337H3.12516C2.54987 20.8337 2.0835 20.3673 2.0835 19.792V5.20866C2.0835 4.63336 2.54987 4.16699 3.12516 4.16699H21.8752ZM20.8335 11.4587H4.16683V18.7503H20.8335V11.4587ZM8.3335 15.6253C8.90879 15.6253 9.37516 16.0917 9.37516 16.667C9.37516 17.2423 8.90879 17.7087 8.3335 17.7087H6.25016C5.67487 17.7087 5.2085 17.2423 5.2085 16.667C5.2085 16.0917 5.67487 15.6253 6.25016 15.6253H8.3335ZM20.8335 6.25033H4.16683V9.37533H20.8335V6.25033Z" fill="#002A8D"/>
</svg>
